# ProBuilder 4.1.0
# https://unity3d.com/unity/features/worldbuilding/probuilder
# 02/04/2020 01:41:09

mtllib ./1_Way_Intersection.mtl
o 1_Way_Intersection

g 1_Way_Intersection
v -0.7995695 -1.966442 1.90134
v -0.7305448 -2.033558 1.90134
v -0.7995695 -1.966442 1.902491
v -1.828 -0.9664418 2.004648
v -1.387414 -1.394848 2.004648
v -0.7305446 -2.033559 2.061661
v -1.828 -0.9664419 2.061661
v -0.7305447 -2.033558 2.004648
v -0.7995697 -1.966442 2.004648
v -0.79957 -1.966442 1.919648
v -0.79957 -1.966442 1.928579
v -0.730545 -2.033558 1.919648
v -0.7936022 -1.966442 1.90134
v -1.822 -0.9664414 -2.061661
v -1.822 -0.9664416 -2.043352
v -1.822 -0.9664417 -1.995352
v -1.095484 -1.672874 -1.995352
v -0.7935699 -1.966442 -1.995352
v -0.7245449 -2.033558 -1.995352
v -0.7935697 -1.966442 -1.90134
v -0.6978395 -1.966442 -1.90134
v -2 -0.7933722 -0.8336868
v -2 -0.7933627 -1.995352
v -2 -0.7933722 -0.8222828
v -2 -0.7933949 1.996851
v -2 -0.7991972 2.004648
v -2 -0.793395 2.004648
v -1.828825 -0.9598377 2.004648
v -1.827999 -0.9664429 2.004648
v -1.828082 -0.9605606 2.004648
v -1.821155 -0.9672639 -1.995352
v -1.828107 -0.9605039 -1.995352
v -1.828025 -0.9663863 -1.995352
v -1.82885 -0.9597813 -1.995352
v -1.818324 -0.9700164 -1.995352
v -0.7995372 -1.966442 -1.995352
v -1.822 -0.9664423 -1.995352
v -0.7936021 -1.966442 1.89752
v -0.79357 -1.966442 -1.985029
v -0.7246623 -2.033476 1.90134
v -0.7246623 -2.033476 1.919578
v -1.828082 -0.9605605 2.061296
v -1.828082 -0.9605604 2.061661
v 0.8444407 -1.966442 1.918886
v 0.8444407 -1.966442 1.919648
v 0.8444414 -1.966442 2.004648
v 0.8444407 -1.966442 1.90134
v 0.8000383 -2.012106 1.90134
v 0.8000383 -2.012106 1.919648
v 1.22844 -1.571525 2.004648
v 0.8000386 -2.012107 2.06166
v 0.8000386 -2.012107 2.004648
v 1.512471 -1.28559 -1.995352
v 1.873155 -0.9146512 -1.995352
v 0.850441 -1.966442 -1.995352
v 0.8504415 -1.966442 -1.907251
v 0.8504415 -1.966442 -1.90134
v 1.87326 -0.9145432 2.004647
v 2 -0.7841996 -1.995354
v 2 -0.778029 -1.995352
v 2 -0.7841995 -1.974583
v -2 2.033558 2.004648
v -2 2.033558 -1.995352
v -2 1.644534 -1.995352
v -2 0.4031394 -1.989141
v -2 0.4029845 0.3740749
v -2 0.4094143 0.3805046
v -2 0.4095699 -1.995352
v -2 0.4031398 -1.995352
v -2 0.4029835 0.3891468
v -2 0.4028778 2.004648
v -2 0.4093081 2.004648
v -2 1.644532 1.615622
v -2 1.644532 2.004648
v 2 2.033558 2.004648
v 1.831941 2.033558 2.004647
v 1.873174 -0.9084601 2.004648
v 2 -0.778029 2.004648
v 1.845623 0.6218436 2.004648
v 1.851811 0.6158265 2.004648
v 1.834263 1.867821 2.004648
v 1.207774 1.242059 2.004647
v 1.208143 1.241701 2.004648
v 1.828244 1.861802 2.004648
v 1.825836 2.033558 2.004648
v 0.3937719 2.033559 2.004647
v 0.7542491 1.683047 2.004648
v 0.3877728 2.033558 2.004648
v 0.7482471 1.683049 2.004648
v -0.7823292 1.661598 2.004648
v -1.849363 0.5577977 2.004648
v -1.849452 0.5641365 2.004648
v -1.999288 0.4036105 2.004647
v 1.867157 -0.9146485 2.004648
v 1.871813 -0.8113194 2.004648
v 1.845706 0.6159297 2.004648
v 1.205185 1.238743 2.004648
v 2 -0.778029 0.8162355
v 2 2.033558 -1.995352
v 1.87171 -0.8114825 -1.995352
v 1.831836 2.033559 -1.995352
v 1.873071 -0.9085664 -1.99535
v 1.845516 0.6219482 -1.995352
v 0.3937731 2.033558 -1.995352
v 1.851704 0.6159313 -1.995352
v 1.825732 2.033559 -1.995352
v 0.7542477 1.683049 -1.995352
v 0.7482467 1.683051 -1.995352
v 0.3877745 2.033558 -1.995352
v -1.616352 1.649911 -1.995352
v -0.7793716 1.658471 -1.995352
v -0.7825854 1.661596 -1.995352
v -0.7780769 1.659802 -1.995352
v -0.7762468 1.661685 -1.995352
v -1.199387 1.232945 -1.995352
v -0.7799211 1.657906 -1.995352
v -1.196217 1.229775 -1.995352
v -1.20199 1.223838 -1.995352
v -1.849479 0.5643702 -1.995352
v -1.999288 0.403872 -1.995352
v -1.822282 -0.946296 -1.995352
v -1.843452 0.5641387 -1.995352
v -1.826727 -0.961846 -1.995352
v -1.84939 0.5580313 -1.995352
v 0.8444407 -1.966442 -1.90134
v 0.8444409 -1.966442 0.8490887
v -0.7452016 -1.966442 -1.901342
v -0.7935799 -1.966442 -0.7889309
v 1.83184 2.033558 -1.82719
v 1.831937 2.033558 1.86454
v 0.3937724 2.033558 -0.3898525
v 0.3937719 2.033558 1.988688
v 0.3937726 2.033558 -0.3891258
v 1.825736 2.033558 -1.821087
v 0.3877738 2.033558 -0.3831253
v 0.780369 -1.966442 1.90134
v -0.7288802 -2.029375 1.90134
v -0.70384 -1.966442 1.90134
v -0.1160748 -2.024946 2.004648
v -0.724663 -2.033476 2.004322
v 0.2887087 -2.019357 -1.995352
v 0.8060386 -2.012107 -1.90134
v -0.7245445 -2.033559 -1.90134
v 0.7863693 -1.966442 -1.90134
v -0.7245448 -2.033558 -2.061661
v 0.8060384 -2.012106 -2.061661
v 0.8060384 -2.012106 -2.043352
v -0.724545 -2.033558 -2.043352
v 0.8060384 -2.012106 -1.995352
v 1.873155 -0.9146512 -2.061661
v 1.873155 -0.9146509 -2.043352
v 1.858953 0.09860241 -1.995352
v 1.851703 0.6159326 -2.061661
v 1.851703 0.6159323 -2.043352
v 1.125183 1.322369 -1.995352
v 0.7542474 1.683049 -2.061661
v -0.7763357 1.661598 -2.061661
v -0.2590058 1.668848 -1.995352
v 0.7542481 1.683049 -2.043352
v -0.7763355 1.661597 -2.043352
v -1.482772 0.9350765 -1.995352
v -1.843452 0.5641426 -2.061661
v -1.829251 -0.4491116 -1.995352
v -1.843452 0.564142 -2.043352
v 1.858543 -0.3001814 2.004648
v 1.867155 -0.9146516 2.061661
v 1.845703 0.6159322 2.061661
v 1.405117 1.044338 2.004648
v 0.7482476 1.683049 2.06166
v 0.1337838 1.674437 2.004648
v -0.7823356 1.661597 2.061661
v -1.210742 1.221012 2.004648
v -1.849452 0.5641423 2.06166
v -1.849363 0.5577935 2.061071
v -1.849363 0.5577934 2.061661
v -1.84084 -0.0503217 2.004648
v -0.7246629 -2.033476 2.004648
v -0.7246633 -2.033476 2.061114
v -0.7246633 -2.033476 2.061662
v 2 -0.7841996 2.004648
v 0.8504407 -1.966442 2.004648
v 2 -1.966442 2.004648
v 2 -0.7841996 0.8224058
v 2 -1.966442 -1.995352
v 1.417164 -1.383606 -1.995352
v 0.850441 -1.966442 0.8550892
v 0.8504407 -1.966442 -1.974581
v -2 -0.799165 -1.995352
v -2 -0.7991745 -0.8280849
v -2 -1.966442 -1.995352
v -2 -1.966442 2.004648
v -1.408198 -1.37464 2.004648
v -0.7995472 -1.966442 -0.794899

vt -0.7976111 1.90134
vt -0.8938869 1.90134
vt -0.7976111 1.902491
vt 0.8041326 -1.922294
vt 0.7351081 -1.989389
vt 1.832808 -0.9202416
vt 1.392224 -1.34851
vt 0.7354928 -1.985707
vt 1.832945 -0.9189321
vt 0.735356 -1.987016
vt 0.8043809 -1.919921
vt 0.804177 -1.921873
vt 0.7351523 -1.988969
vt 0.7981653 -1.922294
vt -1.822265 -0.9412456
vt -1.822256 -0.942054
vt -1.09574 -1.648433
vt -0.7938262 -1.941978
vt -0.7248012 -2.00909
vt -0.7938139 -1.943124
vt -0.6980837 -1.943124
vt 0.8336868 -0.7933722
vt 1.995352 -0.7933627
vt 0.8222828 -0.7933722
vt -1.996851 -0.7933949
vt -2.004648 -0.7991972
vt -2.004648 -0.793395
vt 0 0
vt 1.827999 -0.9664429
vt -1.821155 -0.967264
vt -1.828025 -0.9663864
vt -1.818324 -0.9700164
vt -0.79357 -1.966442
vt -0.7995372 -1.966442
vt -1.822 -0.9664424
vt 0.7995694 1.90134
vt 0.7936022 1.90134
vt 0.7936021 1.89752
vt 0.79357 -1.985029
vt 0.7995372 -1.995352
vt 0.7935697 -1.995352
vt 1.832891 -0.9143613
vt 1.833027 -0.9130608
vt -0.8398308 -1.9218
vt -0.8396255 -1.91983
vt -0.8398729 -1.922203
vt -0.7954707 -1.967858
vt -0.7954267 -1.967438
vt -1.223623 -1.524997
vt -0.795086 -1.964176
vt -0.7952228 -1.965486
vt 1.512214 -1.261173
vt 1.872899 -0.8902616
vt 0.8501847 -1.941976
vt 0.8501965 -1.943049
vt -1.87326 -0.9145432
vt -0.8444406 -1.966442
vt -1.995354 -0.7841996
vt -1.995352 -0.778029
vt -1.974583 -0.7841995
vt 1.873157 -0.9146495
vt -0.8444409 2.004649
vt -0.8504407 -1.90134
vt -2.004648 2.033558
vt 1.995352 2.033558
vt 1.995352 1.644534
vt 1.989141 0.4031394
vt -0.3740749 0.4029845
vt -0.3805046 0.4094143
vt 1.995352 0.4095699
vt 1.995352 0.4031398
vt -0.3891468 0.4029835
vt -2.004648 0.4028778
vt -2.004648 0.4093081
vt -1.615622 1.644532
vt -2.004648 1.644532
vt -2 2.033558
vt -1.831941 2.033558
vt -1.873174 -0.9084602
vt -2 -0.778029
vt -1.845623 0.6218435
vt -1.851811 0.6158264
vt -1.834263 1.867821
vt -1.207774 1.242059
vt -1.208143 1.241701
vt -1.828244 1.861802
vt -1.825836 2.033558
vt -0.3937719 2.033559
vt -0.754249 1.683047
vt -0.3877728 2.033558
vt -0.7482471 1.683049
vt 2 2.033558
vt 2 1.644532
vt 0.7823293 1.661598
vt 2 0.4093079
vt 1.849363 0.5577976
vt 1.849452 0.5641364
vt 1.999288 0.4036104
vt 1.828825 -0.9598377
vt 1.828082 -0.9605606
vt 2 0.4028776
vt 2 -0.7933951
vt -1.867157 -0.9146485
vt -1.871813 -0.8113194
vt -1.845706 0.6159297
vt -1.205185 1.238743
vt 0.8162355 -0.778029
vt -1.995352 2.033558
vt 2.004648 2.033558
vt 2.004648 -0.778029
vt 1.87171 -0.8114826
vt 1.831836 2.033559
vt 1.873071 -0.9085664
vt 2 -0.778029
vt 1.845516 0.6219482
vt 0.393773 2.033558
vt 1.851704 0.6159312
vt 1.825732 2.033559
vt 0.7542476 1.683049
vt 0.7482466 1.683051
vt 0.3877744 2.033558
vt -1.616352 1.649911
vt -2 1.644534
vt -0.7793717 1.658471
vt -0.7825854 1.661596
vt -0.7780769 1.659802
vt -0.64921 -1.930071
vt -0.6472415 -1.930007
vt -2 0.4095698
vt -1.199387 1.232945
vt -0.6535684 -1.929992
vt -0.6511933 -1.930137
vt -1.098932 -1.944864
vt -1.196217 1.229775
vt -0.6506025 -1.930117
vt -1.20199 1.223838
vt -1.849479 0.5643701
vt -1.822282 -0.9462961
vt -1.843452 0.5641386
vt -1.826727 -0.9618461
vt -1.828107 -0.9605041
vt -1.84939 0.5580313
vt -1.82885 -0.9597814
vt -1.999288 0.4038721
vt -2 -0.7933628
vt -2 0.4031398
vt -0.8444409 1.90134
vt -0.8444407 -1.90134
vt -0.8444409 0.8490887
vt 0.7452016 -1.901342
vt 0.7935706 -1.901339
vt 0.7935799 -0.7889309
vt 1.981612 -1.755557
vt 2.149282 -1.924079
vt 1.981608 -1.923601
vt 1.981709 1.933608
vt 1.981712 2.073619
vt 2.149282 2.073141
vt 0.5477337 -0.3151295
vt 1.975521 -1.923584
vt 0.5477346 -1.919513
vt 0.5477332 2.061759
vt 0.5477339 -0.3144033
vt 1.975526 -1.74944
vt 0.5477332 2.077708
vt 1.975626 2.073636
vt 0.541752 2.077724
vt -1.839065 2.084512
vt 0.5417525 -0.3083899
vt 0.541753 -1.919496
vt -1.839065 -1.912708
vt 0.3937719 1.988688
vt 0.3877733 2.004648
vt 0.3937719 2.004648
vt -0.7758014 -1.922207
vt 0.7334434 -1.985206
vt 0.7294016 -1.989135
vt 0.7084034 -1.922289
vt 0.7292696 -1.988886
vt 0.7530886 1.919578
vt -0.7717619 1.919648
vt 0.1208879 -1.978372
vt 0.7294736 -1.986941
vt 0.2884524 -1.994888
vt 0.8057944 -1.988783
vt -0.7247887 -2.010236
vt 0.7861251 -1.943121
vt -0.7248096 -2.008281
vt 0.8057736 -1.986829
vt 0.8057759 -1.987052
vt -0.7248074 -2.008505
vt 0.8057821 -1.987637
vt 1.87289 -0.8894534
vt 1.872893 -0.8896763
vt 1.858697 0.1229167
vt 1.851446 0.6402082
vt 1.851438 0.6410166
vt 1.85144 0.6407932
vt 1.124926 1.346591
vt 0.7539916 1.707244
vt 0.7539826 1.708052
vt -0.7766005 1.6866
vt -0.2592621 1.693042
vt 0.7539857 1.707829
vt -0.7765918 1.685791
vt -0.7765979 1.686376
vt -1.483028 0.9593234
vt -1.843709 0.5884159
vt -1.843717 0.5892246
vt -1.829507 -0.4247624
vt -1.853724 -0.2539536
vt -1.862199 -0.8669518
vt -1.862336 -0.868261
vt -1.840884 0.6619177
vt -1.840747 0.6632271
vt -1.4003 1.090186
vt -0.743432 1.728693
vt -0.7432951 1.730002
vt -0.12897 1.720049
vt 0.7871467 1.707162
vt 0.7872837 1.708471
vt 1.215551 1.266669
vt 1.854397 0.6112471
vt 1.85426 0.6099374
vt 1.854172 0.6035941
vt 1.854307 0.6048864
vt -2.061071 0.5836565
vt -2.061296 -0.9348466
vt -2.061661 -0.9348466
vt -2.061666 0.5836564
vt 1.845648 -0.004363906
vt 0.7296102 -1.985637
vt -2 -0.7841997
vt -0.8504407 -1.966442
vt -2 -1.966442
vt 0.8224058 -0.7841996
vt 2.004648 -0.7841995
vt 2.004648 -1.966442
vt -1.995352 -1.966442
vt 1.417164 -1.383606
vt 2 -0.7841996
vt 2 -1.966442
vt 0.8504407 -1.966442
vt -0.850441 0.8550892
vt -2 2.004648
vt -0.850441 2.004649
vt -0.8504407 -1.974581
vt -0.8504407 -1.995352
vt -2 -1.995352
vt 1.995352 -0.799165
vt 0.8280849 -0.7991745
vt 1.995352 -1.966442
vt -2.004648 -1.966442
vt 1.408198 -1.37464
vt 2 -0.7991973
vt 0.7995704 -1.966442
vt -2 -0.7991651
vt 0.7995702 2.004649
vt 0.7995472 -0.794899
vt 2 -1.995352
vt 2 2.004648

vn 0.6971273 0.7169473 0
vn 0 0 1
vn 0.1707864 0.4292123 0.5000078
vn 0.8989771 0.248325 -2.022056E-06
vn 0.2732495 0.6867397 2.38924E-06
vn 0.7980524 0.4826329 -1.393459E-06
vn 0.2253641 0.7389334 4.597918E-07
vn 0.4304515 0.8230554 5.707515E-06
vn 0.8701414 0.3152712 2.08968E-06
vn 0 0 -1
vn 1 0 0
vn 0 0 0
vn 0 0 0.75
vn 0 1 0
vn 0.9999018 0.01401892 -4.046221E-06
vn -0.7169476 0.6971272 0
vn -0.4779601 0.4647466 0.3333333
vn -0.1489921 0.5393791 0.4
vn -0.3654808 0.8485144 8.630099E-07
vn -0.2951873 0.8787921 3.690939E-06
vn -0.4357736 0.8182375 3.988024E-06
vn -0.3584737 0.3485636 -0.5
vn -1 0 0
vn 0.00065714 -0.0006563717 -0.9999992
vn 0.000328191 -0.0003281911 -0.9999996
vn -0.001185511 -0.0001489155 -0.9999993
vn -0.0005927553 -7.445776E-05 -0.9999996
vn 0 0 0.6666667
vn 0 0 0.5
vn 0 0 0.8
vn 0 -1 0
vn 0.0001646108 -0.9999999 0.0001645278
vn -0.01401989 0.9999018 -5.928328E-08
vn -0.008403549 0.5999368 0.4000026
vn -0.01121328 0.7999214 1.019481E-06
vn -0.2723586 0.5113984 -0.3749979
vn 0.2277044 0.5722831 -0.333333
vn 0.4600804 0.8112653 1.201664E-05
vn -0.2483252 0.898977 4.279473E-06
vn -0.3152712 0.8701414 1.96498E-06
vn 0.3923526 0.8382134 4.469739E-06
vn -0.8112654 0.4600802 1.193954E-05
vn -0.8382134 0.3923524 7.530389E-06
vn -0.9999018 -0.0140145 -5.981655E-06
vn -0.898977 -0.2483252 1.293488E-05
vn -0.8701414 -0.3152712 3.85947E-06
vn -0.6971278 -0.7169468 2.466659E-06
vn -0.4600805 -0.8112653 8.809607E-06
vn 0.2483252 -0.898977 -3.282078E-05
vn 0.0140145 -0.9999018 -9.278458E-07
vn -0.3923526 -0.8382133 -4.040888E-06
vn 0.3152712 -0.8701414 -1.664313E-05
vn 0.716947 -0.6971277 6.485352E-07
vn 0.8112653 -0.4600803 -2.262927E-05
vn 0.8382134 -0.3923525 -3.998302E-06
vn -0.8584245 0.3415566 1.36442E-06
vn -0.8485148 -0.3654807 -7.641947E-07
vn -0.3415565 -0.8584245 -3.589872E-06
vn 0.3654806 -0.8485147 7.641943E-07
vn 0.8584245 -0.3415588 8.558343E-07
vn -0.007007062 0.4999509 0

usemtl ProBuilderDefault
f 3/3/1 2/2/1 1/1/1
f 27/27/11 26/26/11 25/25/11
f 30/28/12 29/28/12 28/28/12
f 34/28/12 33/28/12 32/28/12
f 36/34/2 18/33/2 33/31/2
f 31/30/2 33/31/2 35/32/2
f 38/38/14 1/36/14 13/37/14
f 18/41/14 36/40/14 39/39/14
f 40/28/12 2/28/12 40/28/12
f 12/28/12 41/28/12 41/28/12
f 43/28/12 7/28/12 42/28/12
f 61/60/23 60/59/23 59/58/23
f 69/71/11 68/70/11 65/67/11
f 66/68/11 67/69/11 70/72/11
f 71/28/12 72/28/12 93/28/12
f 83/28/12 97/28/12 82/28/12
f 117/134/2 115/130/2 118/136/2
f 68/28/12 69/28/12 120/28/12
f 69/146/2 23/145/2 120/144/2
f 133/28/12 135/28/12 131/28/12
f 86/174/31 88/173/31 132/172/31
f 41/180/33 49/181/33 41/180/33
f 173/28/12 175/28/12 174/28/12
f 43/229/15 42/228/15 174/227/15
f 175/230/15 43/229/15 174/227/15
f 84/86/25 83/85/25 82/84/24
f 81/83/10 80/82/10 79/81/10
f 80/82/10 95/104/10 79/81/10
f 83/85/25 79/81/10 96/105/10
f 30/100/10 28/99/25 93/98/10
f 74/93/10 62/92/10 89/91/10
f 72/95/10 74/93/10 90/94/10
f 86/88/10 85/87/10 82/84/10
f 85/87/10 84/86/25 82/84/24
f 76/78/10 75/77/10 81/83/10
f 76/78/10 81/83/10 84/86/25
f 86/88/10 87/89/10 89/91/10
f 88/90/10 86/88/10 89/91/10
f 62/92/10 88/90/10 89/91/10
f 83/85/25 84/86/25 79/81/10
f 81/83/10 75/77/10 95/104/10
f 84/86/25 81/83/10 79/81/10
f 75/77/10 78/80/10 95/104/10
f 85/87/10 76/78/10 84/86/25
f 72/95/10 92/97/10 93/98/10
f 92/97/10 91/96/10 93/98/10
f 91/96/10 30/100/10 93/98/10
f 27/102/10 71/101/27 28/99/25
f 71/101/27 93/98/26 28/99/25
f 191/242/10 26/255/10 192/254/10
f 27/102/10 28/99/25 29/29/10
f 26/255/10 27/102/10 29/29/10
f 9/256/10 191/242/10 192/254/10
f 182/235/10 181/234/10 180/233/10
f 78/80/10 77/79/10 95/104/10
f 77/79/10 78/80/10 58/56/10
f 78/80/10 180/233/10 58/56/10
f 95/104/10 94/103/10 79/81/10
f 77/79/10 94/103/10 95/104/10
f 46/57/10 77/79/10 58/56/10
f 181/234/10 46/57/10 58/56/10
f 97/106/10 83/85/25 96/105/10
f 82/84/10 97/106/10 89/91/10
f 87/89/10 82/84/10 89/91/10
f 7/9/6 6/8/5 5/7/1
f 6/8/5 8/10/7 5/7/1
f 4/6/4 7/9/6 5/7/1
f 7/9/6 4/6/4 42/43/15
f 4/6/4 30/42/15 42/43/15
f 30/42/15 176/231/15 42/43/15
f 42/43/15 176/231/15 174/226/15
f 174/226/15 176/231/15 91/225/15
f 92/224/60 173/223/60 91/225/15
f 173/223/60 174/226/15 91/225/15
f 173/223/60 92/224/60 172/222/53
f 171/221/59 173/223/60 172/222/53
f 90/220/59 171/221/59 172/222/53
f 171/221/59 90/220/59 170/219/50
f 169/218/58 171/221/59 170/219/50
f 89/217/58 169/218/58 170/219/50
f 169/218/58 89/217/58 168/216/47
f 167/215/57 169/218/58 168/216/47
f 96/214/57 167/215/57 168/216/47
f 167/215/57 96/214/57 165/211/44
f 166/212/56 167/215/57 165/211/44
f 94/213/56 166/212/56 165/211/44
f 166/212/56 94/213/56 50/49/16
f 51/50/20 166/212/56 50/49/16
f 52/51/21 51/50/20 50/49/16
f 52/51/21 46/45/16 45/44/16
f 49/48/19 52/51/21 45/44/16
f 49/48/19 45/44/16 44/44/16
f 49/48/19 44/44/16 47/46/17
f 48/47/18 49/48/19 47/46/17
f 52/51/21 49/48/19 139/182/33
f 51/50/20 52/51/21 139/182/33
f 51/50/20 139/182/33 178/232/35
f 139/182/33 49/48/19 140/183/35
f 140/183/35 49/48/19 41/179/33
f 49/48/19 48/47/18 41/179/33
f 41/179/33 48/47/18 40/177/34
f 48/47/18 136/175/2 40/177/34
f 136/175/2 48/47/18 47/46/17
f 136/175/2 138/178/2 40/177/2
f 138/178/2 137/176/2 40/177/2
f 137/176/2 138/178/2 13/14/2
f 2/5/3 137/176/2 1/4/2
f 12/13/8 2/5/3 3/4/1
f 11/12/1 12/13/8 10/12/1
f 10/12/1 12/13/8 3/4/1
f 12/13/8 11/12/1 9/11/1
f 8/10/7 12/13/8 9/11/1
f 12/13/8 8/10/7 41/179/33
f 178/232/35 139/182/33 177/183/35
f 137/176/2 13/14/2 1/4/2
f 2/5/3 12/13/8 40/177/34
f 137/176/2 2/5/3 40/177/2
f 12/13/8 41/179/33 40/177/34
f 8/10/7 6/8/5 177/183/35
f 8/10/7 140/183/35 41/179/33
f 6/8/5 178/232/35 177/183/35
f 179/232/61 51/50/20 178/232/35
f 177/183/35 139/182/33 140/183/35
f 8/10/7 177/183/35 140/183/35
f 6/8/5 179/232/61 178/232/35
f 136/175/2 40/177/2 40/177/34
f 181/246/14 182/245/14 186/244/14
f 186/244/14 182/245/14 187/247/14
f 184/249/14 55/248/14 182/245/14
f 127/150/14 126/149/14 125/148/14
f 126/149/14 127/150/14 20/151/14
f 128/152/14 126/149/14 20/151/14
f 36/40/14 190/260/14 193/259/14
f 190/260/14 191/261/14 193/259/14
f 191/261/14 9/258/14 193/259/14
f 126/149/14 128/152/14 38/38/14
f 47/147/14 126/149/14 13/37/14
f 128/152/14 193/259/14 38/38/14
f 193/259/14 1/36/14 38/38/14
f 126/149/14 186/244/14 57/63/14
f 181/246/14 186/244/14 126/149/14
f 126/149/14 38/38/14 13/37/14
f 36/40/14 193/259/14 39/39/14
f 193/259/14 128/152/14 39/39/14
f 55/248/14 187/247/14 182/245/14
f 125/148/14 126/149/14 57/63/14
f 46/62/14 181/246/14 126/149/14
f 75/109/23 99/108/23 98/107/23
f 78/110/23 75/109/23 98/107/23
f 182/238/23 180/237/23 183/236/23
f 182/238/23 183/236/23 61/60/23
f 184/239/23 182/238/23 59/58/23
f 183/236/23 98/107/23 61/60/23
f 98/107/23 99/108/23 60/59/23
f 182/238/23 61/60/23 59/58/23
f 98/107/23 60/59/23 61/60/23
f 78/110/23 98/107/23 183/236/23
f 180/237/23 78/110/23 183/236/23
f 143/186/37 142/185/36 141/184/33
f 21/21/10 143/186/37 20/20/10
f 143/186/37 21/21/10 142/185/36
f 143/186/37 19/19/1 18/18/1
f 19/19/33 143/186/37 141/184/33
f 19/19/33 141/184/33 147/190/40
f 149/192/21 147/190/40 141/184/33
f 142/185/36 149/192/21 141/184/33
f 149/192/21 142/185/36 55/54/16
f 21/21/10 144/187/10 142/185/36
f 142/185/36 144/187/10 57/55/22
f 142/185/36 57/55/22 56/55/16
f 142/185/36 56/55/16 55/54/16
f 148/191/41 19/19/33 147/190/40
f 148/191/41 147/190/40 146/189/39
f 145/188/38 148/191/41 146/189/39
f 20/20/1 143/186/37 18/18/1
f 19/19/1 148/191/41 17/17/1
f 15/15/9 148/191/41 145/188/38
f 15/15/9 16/16/6 148/191/41
f 16/16/6 17/17/1 148/191/41
f 14/15/4 15/15/9 145/188/38
f 122/208/15 163/210/15 15/15/9
f 164/209/55 122/208/15 15/15/9
f 164/209/55 15/15/9 14/15/4
f 162/209/54 164/209/55 14/15/4
f 16/16/6 15/15/9 163/210/15
f 160/206/52 164/209/55 162/209/54
f 160/206/52 114/205/53 164/209/55
f 114/205/53 161/207/53 164/209/55
f 122/208/53 164/209/55 161/207/53
f 107/200/50 158/203/50 160/206/52
f 159/204/51 107/200/50 160/206/52
f 159/204/51 160/206/52 157/202/49
f 156/201/48 159/204/51 157/202/49
f 114/205/50 160/206/52 158/203/50
f 157/202/49 160/206/52 162/209/54
f 154/198/46 159/204/51 156/201/48
f 107/200/47 159/204/51 155/199/47
f 105/196/47 155/199/47 159/204/51
f 154/198/46 105/196/47 159/204/51
f 153/197/45 154/198/46 156/201/48
f 105/196/44 154/198/46 152/195/44
f 151/194/43 154/198/46 153/197/45
f 151/194/43 54/53/44 154/198/46
f 54/53/44 152/195/44 154/198/46
f 150/193/42 151/194/43 153/197/45
f 54/53/16 151/194/43 53/52/16
f 147/190/40 151/194/43 150/193/42
f 149/192/21 53/52/16 151/194/43
f 147/190/40 149/192/21 151/194/43
f 146/189/39 147/190/40 150/193/42
f 67/69/11 66/68/11 65/67/11
f 67/69/11 72/74/11 70/72/11
f 72/74/11 71/73/11 70/72/11
f 68/70/11 67/69/11 65/67/11
f 191/253/11 190/252/11 26/26/11
f 190/252/11 189/251/11 26/26/11
f 190/252/11 188/250/11 189/251/11
f 189/251/11 24/24/11 26/26/11
f 23/23/11 22/22/11 189/251/11
f 188/250/11 23/23/11 189/251/11
f 24/24/11 66/68/11 25/25/11
f 66/68/11 24/24/11 65/67/11
f 24/24/11 22/22/11 65/67/11
f 23/23/11 69/71/11 22/22/11
f 71/73/11 27/27/11 70/72/11
f 27/27/11 25/25/11 70/72/11
f 66/68/11 70/72/11 25/25/11
f 69/71/11 65/67/11 22/22/11
f 67/69/11 73/75/11 72/74/11
f 68/70/11 64/66/11 67/69/11
f 64/66/11 73/75/11 67/69/11
f 73/75/11 74/76/11 72/74/11
f 73/75/11 62/64/11 74/76/11
f 63/65/11 62/64/11 73/75/11
f 64/66/11 63/65/11 73/75/11
f 24/24/11 25/25/11 26/26/11
f 24/24/11 189/251/11 22/22/11
f 63/171/31 109/170/31 135/169/31
f 104/161/31 106/160/31 131/159/31
f 106/160/31 134/164/31 131/159/32
f 101/155/31 99/154/31 129/153/31
f 129/153/31 99/154/31 130/156/31
f 75/158/31 76/157/31 99/154/31
f 85/166/31 86/165/31 134/164/31
f 133/163/31 134/164/31 132/162/31
f 62/168/31 63/171/31 135/169/31
f 88/167/31 62/168/31 135/169/31
f 76/157/31 85/166/31 130/156/31
f 104/161/31 131/159/31 135/169/31
f 135/169/31 133/163/31 132/162/31
f 86/165/31 132/162/31 134/164/31
f 88/167/31 135/169/31 132/162/31
f 85/166/31 134/164/31 130/156/31
f 76/157/31 130/156/31 99/154/31
f 134/164/31 129/153/31 130/156/31
f 134/164/31 133/163/31 131/159/32
f 109/170/31 104/161/31 135/169/31
f 101/155/31 129/153/31 134/164/31
f 106/160/31 101/155/31 134/164/31
f 117/133/2 116/132/29 112/131/28
f 111/135/12 112/131/28 116/132/29
f 114/128/2 112/131/28 113/127/2
f 113/126/12 112/125/28 111/124/12
f 32/141/13 123/140/30 122/139/2
f 99/92/2 101/112/2 100/111/2
f 101/112/2 106/118/2 105/117/2
f 106/118/2 104/116/2 103/115/2
f 60/114/2 99/92/2 102/113/2
f 109/121/2 63/77/2 108/120/2
f 63/77/2 110/122/2 108/120/2
f 110/122/2 63/77/2 64/123/2
f 110/122/2 64/123/2 68/129/2
f 115/130/2 110/122/2 68/129/2
f 110/122/2 115/130/2 112/125/28
f 120/144/2 34/143/2 124/142/2
f 119/137/2 124/142/2 118/136/2
f 119/137/2 68/129/2 124/142/2
f 124/142/2 32/141/13 122/139/2
f 115/130/2 119/137/2 118/136/2
f 23/145/2 34/143/2 120/144/2
f 190/235/2 36/34/2 188/257/2
f 23/145/2 188/257/2 34/143/2
f 184/242/2 59/241/2 185/240/2
f 55/243/2 184/242/2 185/240/2
f 109/121/2 108/120/2 107/119/2
f 104/116/2 109/121/2 107/119/2
f 106/118/2 103/115/2 105/117/2
f 99/92/2 100/111/2 102/113/2
f 68/129/2 120/144/2 124/142/2
f 188/257/2 33/31/13 34/143/2
f 18/33/2 35/32/2 33/31/13
f 123/140/30 121/138/2 122/139/2
f 34/143/2 32/141/13 124/142/2
f 121/138/2 123/140/30 37/35/2
f 123/140/30 33/31/13 31/30/2
f 32/141/13 33/31/13 123/140/30
f 60/114/2 102/113/2 54/61/2
f 59/241/2 60/114/2 54/61/2
f 115/130/2 117/134/2 112/125/28

usemtl Blue

